<?xml version="1.0" encoding="utf-8"?>
<!-- Generator: Adobe Illustrator 15.1.0, SVG Export Plug-In  -->
<!DOCTYPE svg PUBLIC "-//W3C//DTD SVG 1.1//EN" "http://www.w3.org/Graphics/SVG/1.1/DTD/svg11.dtd" [
	<!ENTITY ns_flows "http://ns.adobe.com/Flows/1.0/">
]>
<svg version="1.1"
	 xmlns="http://www.w3.org/2000/svg" xmlns:xlink="http://www.w3.org/1999/xlink" xmlns:a="http://ns.adobe.com/AdobeSVGViewerExtensions/3.0/"
	 x="0px" y="0px" width="20px" height="20px" viewBox="-1.1 -2.6 20 20" enable-background="new -1.1 -2.6 20 20"
	 xml:space="preserve">
<defs>
</defs>
<path fill-rule="evenodd" clip-rule="evenodd" fill="#FFFFFF" d="M17.8,4.5c0-2.5-2-4.5-4.5-4.5c-2.2,0-4,1.6-4.4,3.6
	C8.5,1.6,6.7,0,4.5,0C2,0,0,2,0,4.5c0,0.7,0.2,1.4,0.5,2c0.5,1.3,6.4,6.7,8.1,8.1c0.2,0.2,0.6,0.1,0.8,0c1.6-1.3,7.7-6.9,8-8.2l0,0
	C17.6,5.9,17.8,5.2,17.8,4.5z"/>
</svg>
